<svg xmlns="http://www.w3.org/2000/svg" width="315" height="160" viewBox="0 0 315 160"><g transform="translate(-30 -996)"><g transform="translate(-5 -52)"><rect width="144.9" height="45" transform="translate(35 1048)" fill="#fff"/><rect width="94.5" height="45" transform="translate(179.9 1048)" fill="#fff" opacity="0.85"/><rect width="25.2" height="45" transform="translate(299.6 1048)" fill="#fff" opacity="0.45"/><rect width="25.2" height="45" transform="translate(274.4 1048)" fill="#fff" opacity="0.6"/><rect width="25.2" height="45" transform="translate(324.8 1048)" fill="#fff" opacity="0.3"/></g><g transform="translate(-5 -45)"><text transform="translate(35 1109)" fill="#eee" font-size="14" font-family="Karla-Regular, Karla" letter-spacing="-0.03em"><tspan x="0" y="0">Print</tspan></text><text transform="translate(74 1109)" fill="#ccc" font-size="14" font-family="Karla-Regular, Karla" letter-spacing="-0.03em"><tspan x="0" y="0">46%</tspan></text></g><g transform="translate(-5 -23)"><text transform="translate(35 1109)" fill="#eee" font-size="14" font-family="Karla-Regular, Karla" letter-spacing="-0.03em"><tspan x="0" y="0">Brand</tspan></text><text transform="translate(82 1109)" fill="#ccc" font-size="14" font-family="Karla-Regular, Karla" letter-spacing="-0.03em"><tspan x="0" y="0">30%</tspan></text></g><g transform="translate(-5 21)"><text transform="translate(35 1109)" fill="#eee" font-size="14" font-family="Karla-Regular, Karla" letter-spacing="-0.03em"><tspan x="0" y="0">UX</tspan></text><text transform="translate(63 1109)" fill="#ccc" font-size="14" font-family="Karla-Regular, Karla" letter-spacing="-0.03em"><tspan x="0" y="0">8%</tspan></text></g><g transform="translate(-5 -1)"><text transform="translate(35 1109)" fill="#eee" font-size="14" font-family="Karla-Regular, Karla" letter-spacing="-0.03em"><tspan x="0" y="0">Digital</tspan></text><text transform="translate(85 1109)" fill="#ccc" font-size="14" font-family="Karla-Regular, Karla" letter-spacing="-0.03em"><tspan x="0" y="0">8%</tspan></text></g><g transform="translate(-5 44)"><text transform="translate(35 1108)" fill="#eee" font-size="14" font-family="Karla-Regular, Karla" letter-spacing="-0.03em"><tspan x="0" y="0">Not a designer</tspan></text><text transform="translate(133 1108)" fill="#ccc" font-size="14" font-family="Karla-Regular, Karla" letter-spacing="-0.03em"><tspan x="0" y="0">8%</tspan></text></g><g transform="translate(-8.229)"><line y2="40.5" transform="translate(232.863 1041)" fill="none" stroke="#ddd" stroke-width="1"/><line x1="112.121" transform="translate(120.607 1081.5)" fill="none" stroke="#ddd" stroke-width="1"/></g><g transform="translate(-12.637)"><line y2="62.5" transform="translate(295.271 1041)" fill="none" stroke="#a4a4a3" stroke-width="1"/><line x1="174.529" transform="translate(120.607 1103.5)" fill="none" stroke="#a4a4a3" stroke-width="1"/></g><g transform="translate(-4.66)"><line y2="84.5" transform="translate(313.295 1041)" fill="none" stroke="#828281" stroke-width="1"/><line x1="223.271" transform="translate(89.889 1125.5)" fill="none" stroke="#828281" stroke-width="1"/></g><g transform="translate(-21.127)"><line y2="106.5" transform="translate(354.762 1041)" fill="none" stroke="#61605f" stroke-width="1"/><line x1="177.371" transform="translate(177.256 1147.5)" fill="none" stroke="#61605f" stroke-width="1"/></g><g transform="translate(-17.607)"><line y2="18.5" transform="translate(148.723 1041)" fill="none" stroke="#ddd" stroke-width="1"/><line x1="27.98" transform="translate(120.607 1059.5)" fill="none" stroke="#ddd" stroke-width="1"/></g></g></svg>
