<svg xmlns="http://www.w3.org/2000/svg" width="534" height="160" viewBox="0 0 534 160"><g transform="translate(-30 -996)"><g transform="translate(-5 -52)"><rect width="245.64" height="45" transform="translate(35 1048)" fill="#fff"/><rect width="160.2" height="45" transform="translate(280.64 1048)" fill="#fff" opacity="0.85"/><rect width="42.72" height="45" transform="translate(483.56 1048)" fill="#fff" opacity="0.45"/><rect width="42.72" height="45" transform="translate(440.84 1048)" fill="#fff" opacity="0.6"/><rect width="42.72" height="45" transform="translate(526.28 1048)" fill="#fff" opacity="0.3"/></g><g transform="translate(-5 -45)"><text transform="translate(35 1109)" fill="#eee" font-size="14" font-family="Karla-Regular, Karla" letter-spacing="-0.03em"><tspan x="0" y="0">Print</tspan></text><text transform="translate(74 1109)" fill="#ccc" font-size="14" font-family="Karla-Regular, Karla" letter-spacing="-0.03em"><tspan x="0" y="0">46%</tspan></text></g><g transform="translate(-5 -23)"><text transform="translate(35 1109)" fill="#eee" font-size="14" font-family="Karla-Regular, Karla" letter-spacing="-0.03em"><tspan x="0" y="0">Brand</tspan></text><text transform="translate(82 1109)" fill="#ccc" font-size="14" font-family="Karla-Regular, Karla" letter-spacing="-0.03em"><tspan x="0" y="0">30%</tspan></text></g><g transform="translate(-5 21)"><text transform="translate(35 1109)" fill="#eee" font-size="14" font-family="Karla-Regular, Karla" letter-spacing="-0.03em"><tspan x="0" y="0">UX</tspan></text><text transform="translate(63 1109)" fill="#ccc" font-size="14" font-family="Karla-Regular, Karla" letter-spacing="-0.03em"><tspan x="0" y="0">8%</tspan></text></g><g transform="translate(-5 -1)"><text transform="translate(35 1109)" fill="#eee" font-size="14" font-family="Karla-Regular, Karla" letter-spacing="-0.03em"><tspan x="0" y="0">Digital</tspan></text><text transform="translate(85 1109)" fill="#ccc" font-size="14" font-family="Karla-Regular, Karla" letter-spacing="-0.03em"><tspan x="0" y="0">8%</tspan></text></g><g transform="translate(-5 44)"><text transform="translate(35 1108)" fill="#eee" font-size="14" font-family="Karla-Regular, Karla" letter-spacing="-0.03em"><tspan x="0" y="0">Not a designer</tspan></text><text transform="translate(133 1108)" fill="#ccc" font-size="14" font-family="Karla-Regular, Karla" letter-spacing="-0.03em"><tspan x="0" y="0">8%</tspan></text></g><g transform="translate(-8.229)"><line y2="40.5" transform="translate(370.561 1041)" fill="none" stroke="#ddd" stroke-width="1"/><line x1="249.818" transform="translate(120.607 1081.5)" fill="none" stroke="#ddd" stroke-width="1"/></g><g transform="translate(-12.637)"><line y2="62.5" transform="translate(470.703 1041)" fill="none" stroke="#a4a4a3" stroke-width="1"/><line x1="349.961" transform="translate(120.607 1103.5)" fill="none" stroke="#a4a4a3" stroke-width="1"/></g><g transform="translate(-4.66)"><line y2="84.5" transform="translate(506.012 1041)" fill="none" stroke="#828281" stroke-width="1"/><line x1="415.988" transform="translate(89.889 1125.5)" fill="none" stroke="#828281" stroke-width="1"/></g><g transform="translate(-21.127)"><line y2="106.5" transform="translate(564.893 1041)" fill="none" stroke="#61605f" stroke-width="1"/><line x1="387.502" transform="translate(177.256 1147.5)" fill="none" stroke="#61605f" stroke-width="1"/></g><g transform="translate(-17.607)"><line y2="18.5" transform="translate(173.736 1041)" fill="none" stroke="#ddd" stroke-width="1"/><line x1="52.994" transform="translate(120.607 1059.5)" fill="none" stroke="#ddd" stroke-width="1"/></g></g></svg>
